<svg xmlns="http://www.w3.org/2000/svg" viewBox="0 0 26 26" enable-background="new 0 0 26 26">
    <path d="M 24.9375 3.09375 A 1.0001 1.0001 0 0 0 24.84375 3.125 C 19.871237 3.9050021 17.353887 7.7749228 16.6875 8.875 C 15.937291 8.5336937 14.775907 8.09375 13 8.09375 C 11.183732 8.09375 10.017548 8.5652302 9.28125 8.90625 C 8.6057558 7.8689808 6.2635361 4.5637306 1.09375 4.09375 A 1.0001 1.0001 0 0 0 0.03125 5.34375 C 0.40999957 6.7640609 1.6601285 10.774603 5.34375 12.71875 C 5.2023003 13.129953 4.9525959 13.589553 4.90625 13.90625 C 4.823716 14.47023 4.799493 14.776014 4.71875 14.9375 A 1.0001 1.0001 0 0 0 4.6875 15 C 3.8077581 17.089387 3.870457 18.849772 4.5 20.125 C 5.129543 21.400228 6.2224651 22.115822 7.1875 22.4375 L 7.8125 20.5625 C 8.1695785 20.027929 8.1515866 19.134579 7.71875 18.34375 C 7.3293255 17.632239 6.6835053 17.200811 6.09375 17.125 C 6.1705591 16.740018 6.302537 16.324808 6.5 15.84375 C 6.510802 15.81743 6.520035 15.80789 6.53125 15.78125 C 6.8144596 15.17391 6.8102296 14.630098 6.875 14.1875 C 6.942466 13.72648 7.032974 13.317511 7.34375 12.8125 A 1.0001 1.0001 0 0 0 6.84375 11.375 C 5.2161214 10.748989 4.2183946 9.6476135 3.53125 8.46875 L 4.5 7.40625 C 6.912372 8.716525 8.125 10.59375 8.125 10.59375 A 1.0001 1.0001 0 0 0 9.53125 10.9375 C 9.53125 10.9375 10.877778 10.09375 13 10.09375 C 15.122222 10.09375 16.46875 10.9375 16.46875 10.9375 A 1.0001 1.0001 0 0 0 17.875 10.59375 C 17.875 10.59375 19.461976 8.120617 22.0625 6.5 L 22.9375 7.4375 C 22.168143 8.8351813 20.937582 10.141795 19.03125 10.875 A 1.0001 1.0001 0 0 0 18.5625 12.375 C 18.89031 12.848503 19.052822 13.382656 19.15625 13.96875 C 19.259678 14.554844 19.25213 15.160515 19.59375 15.84375 A 1.0001 1.0001 0 0 0 19.625 15.875 C 19.843023 16.277504 19.949718 16.68981 20 17.09375 C 19.26112 16.987222 18.437514 17.617122 18.09375 18.625 C 17.846504 19.349897 17.923357 20.073785 18.21875 20.5625 C 18.198376 20.573278 18.176817 20.583466 18.15625 20.59375 L 19.0625 22.40625 C 21.563379 21.15581 22.947344 17.84029 21.375 14.9375 L 21.40625 14.9375 C 21.347868 14.820735 21.246572 14.313906 21.125 13.625 C 21.053925 13.22224 20.778939 12.699722 20.59375 12.21875 C 24.221899 10.375135 25.793132 6.8767796 26 4.1875 A 1.0001 1.0001 0 0 0 24.9375 3.09375 z M 10 15 C 9.4477153 15 9 15.447715 9 16 C 9 16.552285 9.4477153 17 10 17 C 10.552285 17 11 16.552285 11 16 C 11 15.447715 10.552285 15 10 15 z M 16 15 C 15.447715 15 15 15.447715 15 16 C 15 16.552285 15.447715 17 16 17 C 16.552285 17 17 16.552285 17 16 C 17 15.447715 16.552285 15 16 15 z M 13 17 C 12.447715 17 12 17.223858 12 17.5 C 12 17.776142 12.447715 18 13 18 C 13.552285 18 14 17.776142 14 17.5 C 14 17.223858 13.552285 17 13 17 z"/>
</svg>